# MagicaVoxel @ Ephtracy

# group
o 

# material
mtllib Button.mtl
usemtl palette

# normals
vn -1 0 0
vn 1 0 0
vn 0 0 1
vn 0 0 -1
vn 0 -1 0
vn 0 1 0

# texcoords
vt 0.724609 0.5
vt 0.982422 0.5
vt 0.986328 0.5
vt 0.990234 0.5

# verts
v 0 2 0
v 0 2 -0.1
v 0 2 -3.7
v 0 2 -3.8
v 0 2.1 -0.1
v 0 2.1 -3.7
v 0 2.4 -0.1
v 0 2.4 -3.7
v 0 2.5 0
v 0 2.5 -0.1
v 0 2.5 -3.7
v 0 2.5 -3.8
v 0.2 2.5 -0.2
v 0.2 2.5 -3.6
v 0.2 2.6 -0.2
v 0.2 2.6 -3.6
v 3.4 2.5 -0.4
v 3.4 2.5 -3.4
v 3.4 2.6 -0.4
v 3.4 2.6 -3.4
v 0.4 2.5 -0.4
v 0.4 2.5 -3.4
v 0.4 2.6 -0.4
v 0.4 2.6 -3.4
v 3.6 2.5 -0.2
v 3.6 2.5 -3.6
v 3.6 2.6 -0.2
v 3.6 2.6 -3.6
v 3.8 2 0
v 3.8 2 -0.1
v 3.8 2 -3.7
v 3.8 2 -3.8
v 3.8 2.1 -0.1
v 3.8 2.1 -3.7
v 3.8 2.4 -0.1
v 3.8 2.4 -3.7
v 3.8 2.5 0
v 3.8 2.5 -0.1
v 3.8 2.5 -3.7
v 3.8 2.5 -3.8
v 0 2 0
v 0 2.5 0
v 0.1 2 0
v 0.1 2.1 0
v 0.1 2.4 0
v 0.1 2.5 0
v 3.7 2 0
v 3.7 2.1 0
v 3.7 2.4 0
v 3.7 2.5 0
v 3.8 2 0
v 3.8 2.5 0
v 0.2 2.5 -0.2
v 0.2 2.6 -0.2
v 3.6 2.5 -0.2
v 3.6 2.6 -0.2
v 0.4 2.5 -3.4
v 0.4 2.6 -3.4
v 3.4 2.5 -3.4
v 3.4 2.6 -3.4
v 0.4 2.5 -0.4
v 0.4 2.6 -0.4
v 3.4 2.5 -0.4
v 3.4 2.6 -0.4
v 0.2 2.5 -3.6
v 0.2 2.6 -3.6
v 3.6 2.5 -3.6
v 3.6 2.6 -3.6
v 0 2 -3.8
v 0 2.5 -3.8
v 0.1 2 -3.8
v 0.1 2.1 -3.8
v 0.1 2.4 -3.8
v 0.1 2.5 -3.8
v 3.7 2 -3.8
v 3.7 2.1 -3.8
v 3.7 2.4 -3.8
v 3.7 2.5 -3.8
v 3.8 2 -3.8
v 3.8 2.5 -3.8
v 0 2 0
v 0.1 2 0
v 3.7 2 0
v 3.8 2 0
v 0 2 -0.1
v 0.1 2 -0.1
v 3.7 2 -0.1
v 3.8 2 -0.1
v 0 2 -3.7
v 0.1 2 -3.7
v 3.7 2 -3.7
v 3.8 2 -3.7
v 0 2 -3.8
v 0.1 2 -3.8
v 3.7 2 -3.8
v 3.8 2 -3.8
v 0 2.5 0
v 0.1 2.5 0
v 3.7 2.5 0
v 3.8 2.5 0
v 0 2.5 -0.1
v 0.1 2.5 -0.1
v 0.2 2.5 -0.1
v 3.6 2.5 -0.1
v 3.7 2.5 -0.1
v 3.8 2.5 -0.1
v 0.1 2.5 -0.2
v 0.2 2.5 -0.2
v 3.6 2.5 -0.2
v 3.7 2.5 -0.2
v 0.4 2.5 -0.4
v 3.4 2.5 -0.4
v 0.4 2.5 -3.4
v 3.4 2.5 -3.4
v 0.1 2.5 -3.6
v 0.2 2.5 -3.6
v 3.6 2.5 -3.6
v 3.7 2.5 -3.6
v 0 2.5 -3.7
v 0.1 2.5 -3.7
v 0.2 2.5 -3.7
v 3.6 2.5 -3.7
v 3.7 2.5 -3.7
v 3.8 2.5 -3.7
v 0 2.5 -3.8
v 0.1 2.5 -3.8
v 3.7 2.5 -3.8
v 3.8 2.5 -3.8
v 0.2 2.6 -0.2
v 3.6 2.6 -0.2
v 0.3 2.6 -0.3
v 3.5 2.6 -0.3
v 0.4 2.6 -0.4
v 3.4 2.6 -0.4
v 0.4 2.6 -3.4
v 3.4 2.6 -3.4
v 0.3 2.6 -3.5
v 3.5 2.6 -3.5
v 0.2 2.6 -3.6
v 3.6 2.6 -3.6

# faces
f 5/3/1 2/3/1 1/3/1
f 5/2/1 3/2/1 2/2/1
f 6/3/1 4/3/1 3/3/1
f 6/2/1 3/2/1 5/2/1
f 7/3/1 5/3/1 1/3/1
f 7/4/1 6/4/1 5/4/1
f 8/3/1 4/3/1 6/3/1
f 8/4/1 6/4/1 7/4/1
f 9/3/1 7/3/1 1/3/1
f 10/2/1 8/2/1 7/2/1
f 10/3/1 7/3/1 9/3/1
f 11/3/1 4/3/1 8/3/1
f 11/2/1 8/2/1 10/2/1
f 12/3/1 4/3/1 11/3/1
f 15/3/1 14/3/1 13/3/1
f 16/3/1 14/3/1 15/3/1
f 19/2/1 18/2/1 17/2/1
f 20/2/1 18/2/1 19/2/1
f 21/2/2 22/2/2 23/2/2
f 23/2/2 22/2/2 24/2/2
f 25/3/2 26/3/2 27/3/2
f 27/3/2 26/3/2 28/3/2
f 29/3/2 30/3/2 33/3/2
f 30/2/2 31/2/2 33/2/2
f 31/3/2 32/3/2 34/3/2
f 33/2/2 31/2/2 34/2/2
f 29/3/2 33/3/2 35/3/2
f 33/4/2 34/4/2 35/4/2
f 34/3/2 32/3/2 36/3/2
f 35/4/2 34/4/2 36/4/2
f 29/3/2 35/3/2 37/3/2
f 35/2/2 36/2/2 38/2/2
f 37/3/2 35/3/2 38/3/2
f 36/3/2 32/3/2 39/3/2
f 38/2/2 36/2/2 39/2/2
f 39/3/2 32/3/2 40/3/2
f 43/3/3 42/3/3 41/3/3
f 44/3/3 42/3/3 43/3/3
f 45/3/3 42/3/3 44/3/3
f 46/3/3 42/3/3 45/3/3
f 47/2/3 44/2/3 43/2/3
f 48/4/3 45/4/3 44/4/3
f 48/2/3 44/2/3 47/2/3
f 49/2/3 46/2/3 45/2/3
f 49/4/3 45/4/3 48/4/3
f 50/2/3 46/2/3 49/2/3
f 51/3/3 48/3/3 47/3/3
f 51/3/3 49/3/3 48/3/3
f 51/3/3 50/3/3 49/3/3
f 52/3/3 50/3/3 51/3/3
f 55/3/3 54/3/3 53/3/3
f 56/3/3 54/3/3 55/3/3
f 59/2/3 58/2/3 57/2/3
f 60/2/3 58/2/3 59/2/3
f 61/2/4 62/2/4 63/2/4
f 63/2/4 62/2/4 64/2/4
f 65/3/4 66/3/4 67/3/4
f 67/3/4 66/3/4 68/3/4
f 69/3/4 70/3/4 71/3/4
f 71/3/4 70/3/4 72/3/4
f 72/3/4 70/3/4 73/3/4
f 73/3/4 70/3/4 74/3/4
f 71/2/4 72/2/4 75/2/4
f 72/4/4 73/4/4 76/4/4
f 75/2/4 72/2/4 76/2/4
f 73/2/4 74/2/4 77/2/4
f 76/4/4 73/4/4 77/4/4
f 77/2/4 74/2/4 78/2/4
f 75/3/4 76/3/4 79/3/4
f 76/3/4 77/3/4 79/3/4
f 77/3/4 78/3/4 79/3/4
f 79/3/4 78/3/4 80/3/4
f 85/3/5 82/3/5 81/3/5
f 86/2/5 83/2/5 82/2/5
f 86/3/5 82/3/5 85/3/5
f 87/3/5 84/3/5 83/3/5
f 87/2/5 83/2/5 86/2/5
f 88/3/5 84/3/5 87/3/5
f 89/2/5 86/2/5 85/2/5
f 89/2/5 87/2/5 86/2/5
f 89/2/5 88/2/5 87/2/5
f 90/2/5 88/2/5 89/2/5
f 91/2/5 88/2/5 90/2/5
f 92/2/5 88/2/5 91/2/5
f 93/3/5 90/3/5 89/3/5
f 94/2/5 91/2/5 90/2/5
f 94/3/5 90/3/5 93/3/5
f 95/3/5 92/3/5 91/3/5
f 95/2/5 91/2/5 94/2/5
f 96/3/5 92/3/5 95/3/5
f 97/3/6 98/3/6 101/3/6
f 98/2/6 99/2/6 102/2/6
f 101/3/6 98/3/6 102/3/6
f 102/2/6 99/2/6 103/2/6
f 103/2/6 99/2/6 104/2/6
f 99/3/6 100/3/6 105/3/6
f 104/2/6 99/2/6 105/2/6
f 105/3/6 100/3/6 106/3/6
f 101/2/6 102/2/6 107/2/6
f 102/3/6 103/3/6 107/3/6
f 103/2/6 104/2/6 108/2/6
f 107/3/6 103/3/6 108/3/6
f 104/3/6 105/3/6 109/3/6
f 108/2/6 104/2/6 109/2/6
f 105/2/6 106/2/6 110/2/6
f 109/3/6 105/3/6 110/3/6
f 111/1/6 112/1/6 113/1/6
f 113/1/6 112/1/6 114/1/6
f 101/2/6 107/2/6 115/2/6
f 107/2/6 108/2/6 115/2/6
f 115/2/6 108/2/6 116/2/6
f 109/2/6 110/2/6 117/2/6
f 110/2/6 106/2/6 118/2/6
f 117/2/6 110/2/6 118/2/6
f 101/2/6 115/2/6 119/2/6
f 115/3/6 116/3/6 120/3/6
f 119/2/6 115/2/6 120/2/6
f 116/2/6 117/2/6 121/2/6
f 120/3/6 116/3/6 121/3/6
f 117/3/6 118/3/6 122/3/6
f 121/2/6 117/2/6 122/2/6
f 118/2/6 106/2/6 123/2/6
f 122/3/6 118/3/6 123/3/6
f 123/2/6 106/2/6 124/2/6
f 119/3/6 120/3/6 125/3/6
f 121/2/6 122/2/6 126/2/6
f 125/3/6 120/3/6 126/3/6
f 120/2/6 121/2/6 126/2/6
f 122/2/6 123/2/6 126/2/6
f 123/3/6 124/3/6 127/3/6
f 126/2/6 123/2/6 127/2/6
f 127/3/6 124/3/6 128/3/6
f 129/3/6 130/3/6 131/3/6
f 131/3/6 130/3/6 132/3/6
f 131/2/6 132/2/6 133/2/6
f 133/2/6 132/2/6 134/2/6
f 131/2/6 133/2/6 135/2/6
f 134/2/6 132/2/6 136/2/6
f 129/3/6 131/3/6 137/3/6
f 135/2/6 136/2/6 137/2/6
f 131/2/6 135/2/6 137/2/6
f 136/2/6 132/2/6 138/2/6
f 137/2/6 136/2/6 138/2/6
f 132/3/6 130/3/6 138/3/6
f 129/3/6 137/3/6 139/3/6
f 137/3/6 138/3/6 139/3/6
f 138/3/6 130/3/6 140/3/6
f 139/3/6 138/3/6 140/3/6
